<svg width="24" height="24" viewBox="0 0 24 24" fill="none" xmlns="http://www.w3.org/2000/svg">
<g opacity="0.32" clip-path="url(#clip0_82644_381)">
<path d="M13.6414 7.21889C13.6966 7.23286 13.6966 7.23286 13.7528 7.24711C15.63 7.73525 17.2442 8.90012 18.2383 10.5743C18.6909 11.3744 19.019 12.2149 19.1727 13.1251C19.1808 13.1729 19.1889 13.2206 19.1973 13.2697C19.2232 13.4833 19.2254 13.6909 19.2241 13.9057C19.224 13.969 19.224 13.969 19.2239 14.0336C19.2237 14.1673 19.2231 14.301 19.2225 14.4347C19.2222 14.5258 19.222 14.6169 19.2218 14.708C19.2213 14.9304 19.2205 15.1528 19.2196 15.3751C19.2493 15.3806 19.279 15.3861 19.3097 15.3918C20.488 15.6108 21.6121 15.9746 22.7381 16.3771C22.7784 16.3915 22.8188 16.4058 22.8603 16.4206C22.9755 16.4618 23.0906 16.5034 23.2056 16.5452C23.2399 16.5575 23.2742 16.5698 23.3096 16.5824C23.6235 16.6977 23.8531 16.7977 24.0008 17.1095C24.0368 17.3743 24.037 17.5956 23.9217 17.839C23.784 17.9841 23.6596 18.0778 23.4609 18.1174C23.0466 18.126 22.7106 18.0055 22.3305 17.8575C22.1447 17.7853 21.9575 17.7166 21.7706 17.6473C21.7331 17.6333 21.6956 17.6193 21.6569 17.6049C20.4161 17.1442 19.1352 16.7799 17.8045 16.7638C17.7519 16.7621 17.6992 16.7603 17.6449 16.7585C16.8014 16.7501 16.01 17.0414 15.2315 17.338C12.8242 18.2534 11.0553 18.2153 8.65174 17.2994C6.05221 16.313 3.60606 17.0332 1.12406 18.0488C0.825375 18.1458 0.539702 18.1493 0.255689 18.0148C0.10243 17.8694 0.0121262 17.7478 -0.0195186 17.536C-0.019801 17.3165 -0.0161382 17.1491 0.0711187 16.9455C0.301826 16.7147 0.623269 16.6111 0.926221 16.5023C0.976639 16.484 0.97664 16.484 1.02808 16.4652C1.13672 16.4258 1.2455 16.3867 1.35432 16.3478C1.3918 16.3343 1.42927 16.3209 1.46788 16.307C4.06965 15.3751 4.06965 15.3751 4.82893 15.3751C4.82139 15.344 4.81386 15.3128 4.80609 15.2807C4.77716 15.1122 4.77356 14.9471 4.77253 14.7767C4.77227 14.7415 4.772 14.7063 4.77173 14.67C4.77128 14.5953 4.77098 14.5206 4.7708 14.4459C4.77035 14.3345 4.76889 14.2231 4.76741 14.1117C4.76279 13.452 4.85237 12.8223 5.04866 12.1906C5.06061 12.1518 5.07256 12.113 5.08487 12.073C5.4414 10.9539 6.04826 10.0432 6.84456 9.18764C6.88842 9.13996 6.88842 9.13996 6.93318 9.09133C8.56621 7.38282 11.3593 6.6246 13.6414 7.21889ZM10.5477 8.67201C10.4901 8.68797 10.4325 8.70392 10.3732 8.72035C8.81067 9.19864 7.57745 10.2792 6.80446 11.7052C6.45801 12.3746 6.22967 13.1703 6.22896 13.9237C6.2289 13.9848 6.22884 14.0459 6.22877 14.1089C6.22887 14.1403 6.22897 14.1717 6.22907 14.204C6.22932 14.2999 6.22907 14.3957 6.22877 14.4916C6.22883 14.5526 6.22889 14.6137 6.22896 14.6766C6.22901 14.7319 6.22906 14.7873 6.22912 14.8443C6.23494 14.994 6.25393 15.1344 6.28206 15.2814C6.32369 15.2821 6.36532 15.2827 6.40822 15.2834C7.43226 15.3216 8.37402 15.6343 9.32893 15.9845C11.0663 16.6214 12.335 16.842 14.1106 16.1933C14.2681 16.1358 14.426 16.0796 14.5839 16.0231C14.6154 16.0119 14.6469 16.0006 14.6793 15.9889C15.6855 15.6285 16.6437 15.3111 17.7196 15.2814C17.8626 14.5214 17.8352 13.5879 17.6258 12.8439C17.6099 12.7863 17.5939 12.7287 17.5775 12.6694C17.1169 11.1649 16.0959 9.9318 14.7201 9.17684C14.3126 8.96132 13.8989 8.79528 13.4539 8.67201C13.4007 8.65703 13.3475 8.64204 13.2926 8.6266C12.4273 8.42497 11.4043 8.43086 10.5477 8.67201Z" fill="#EC9327"/>
<path d="M10.7154 19.9298C11.926 20.3869 12.7614 20.1454 13.9305 19.6992C15.5794 19.0765 17.1261 19.3922 18.75 19.9484C18.7977 19.9646 18.7977 19.9646 18.8464 19.9812C19.7843 20.3033 19.7843 20.3033 20.045 20.5577C20.14 20.7953 20.1471 21.0289 20.1094 21.2814C20.0023 21.4994 19.8716 21.6245 19.6407 21.7032C19.2299 21.7606 18.9 21.6399 18.5245 21.4865C18.1194 21.3287 17.717 21.183 17.2969 21.0704C17.257 21.0596 17.2171 21.0489 17.1759 21.0377C16.0267 20.7385 15.1252 20.8522 14.0303 21.2579C12.667 21.7597 11.5704 21.837 10.195 21.3434C10.1636 21.3322 10.1322 21.321 10.0998 21.3094C9.94312 21.2531 9.78683 21.196 9.6311 21.1371C8.42315 20.6867 7.37563 20.815 6.18058 21.2449C6.14255 21.2586 6.10452 21.2722 6.06533 21.2863C5.87336 21.3555 5.682 21.4259 5.49125 21.4984C5.09941 21.6445 4.73826 21.7727 4.31254 21.7032C4.09617 21.6008 3.99714 21.4925 3.89067 21.2814C3.85248 21.0258 3.85888 20.7931 3.96098 20.5548C4.26651 20.2493 4.73868 20.139 5.13871 19.9982C5.17069 19.9869 5.20267 19.9755 5.23562 19.9639C7.21401 19.2657 8.74392 19.1822 10.7154 19.9298Z" fill="#EC9327"/>
<path d="M2.52646 7.97588C2.70375 8.06088 2.87482 8.15329 3.04593 8.24999C3.10455 8.28276 3.10455 8.28276 3.16436 8.3162C3.2915 8.38786 3.41784 8.46076 3.54398 8.53416C3.58454 8.55732 3.6251 8.58048 3.66689 8.60434C3.89812 8.74195 4.04718 8.85247 4.17093 9.09373C4.23979 9.37834 4.22385 9.58693 4.07718 9.84373C3.9134 10.0216 3.70918 10.1146 3.46781 10.125C3.12367 10.0749 2.85322 9.90953 2.55669 9.73405C2.4746 9.68551 2.39213 9.63768 2.30957 9.58995C1.61562 9.18451 1.61562 9.18451 1.49906 8.85936C1.46126 8.60678 1.48175 8.39539 1.62448 8.18004C1.87027 7.90017 2.18546 7.84121 2.52646 7.97588Z" fill="#EC9327"/>
<path d="M22.0742 7.95301C22.2599 8.04372 22.3776 8.15895 22.4693 8.34431C22.5492 8.58481 22.5236 8.78934 22.4446 9.02638C22.292 9.25634 22.0357 9.37475 21.8009 9.50678C21.6918 9.56915 21.5844 9.63406 21.4769 9.69929C21.3981 9.74651 21.3193 9.79369 21.2405 9.84083C21.2032 9.86357 21.1659 9.8863 21.1274 9.90972C20.8778 10.0565 20.6643 10.1524 20.3669 10.1071C20.1399 10.0296 20.0008 9.96588 19.8753 9.75001C19.7723 9.52928 19.7543 9.32538 19.8284 9.09376C19.9795 8.77412 20.2613 8.64859 20.5608 8.48146C20.6097 8.45339 20.6586 8.42532 20.7089 8.3964C21.7094 7.82621 21.7094 7.82621 22.0742 7.95301Z" fill="#EC9327"/>
<path d="M6.72944 3.85278C6.95991 4.00572 7.07754 4.26218 7.20963 4.49749C7.27159 4.60437 7.33747 4.70816 7.404 4.81225C7.85498 5.53008 7.85498 5.53008 7.81086 5.93505C7.75337 6.15225 7.66072 6.27437 7.48823 6.41332C7.20111 6.5373 6.98316 6.53597 6.69648 6.43053C6.48997 6.29952 6.37243 6.0667 6.253 5.85961C6.20695 5.77985 6.20695 5.77985 6.15998 5.69848C6.14428 5.67105 6.12859 5.64361 6.11242 5.61535C6.06445 5.53158 6.01611 5.44803 5.96772 5.36449C5.57069 4.674 5.57069 4.674 5.62495 4.31274C5.69036 4.11925 5.79144 3.9833 5.96186 3.87035C6.22155 3.7419 6.46061 3.76317 6.72944 3.85278Z" fill="#EC9327"/>
<path d="M18.0374 3.86995C18.2092 3.98381 18.3057 4.11892 18.3743 4.31234C18.4494 4.70153 18.2318 5.01516 18.0462 5.34359C18.0134 5.40221 18.0134 5.40221 17.98 5.46201C17.9083 5.58915 17.8354 5.71549 17.762 5.84163C17.7388 5.88219 17.7157 5.92275 17.6918 5.96454C17.5542 6.19578 17.4437 6.34484 17.2024 6.46859C16.9197 6.53699 16.707 6.52331 16.4524 6.37484C16.2279 6.1388 16.1926 5.96476 16.1955 5.64528C16.2374 5.34643 16.3973 5.11238 16.555 4.86019C16.5865 4.80735 16.6181 4.75451 16.6506 4.70006C17.3554 3.53044 17.3554 3.53044 18.0374 3.86995Z" fill="#EC9327"/>
<path d="M22.0165 13.5734C22.0603 13.5731 22.104 13.5729 22.1491 13.5726C22.2414 13.5723 22.3337 13.5724 22.426 13.5728C22.5669 13.5732 22.7076 13.5718 22.8485 13.5704C22.9383 13.5703 23.0282 13.5703 23.1181 13.5704C23.16 13.5699 23.2019 13.5694 23.2451 13.5688C23.5042 13.5717 23.6544 13.6076 23.8595 13.7812C24.0496 14.026 24.0364 14.2806 24.0001 14.5781C23.8996 14.7902 23.7908 14.9015 23.5782 14.9999C23.2861 15.075 22.9828 15.0555 22.6833 15.0555C22.577 15.0556 22.4706 15.0565 22.3643 15.0574C22.2959 15.0575 22.2275 15.0576 22.1592 15.0576C22.0976 15.0578 22.036 15.058 21.9725 15.0582C21.7191 15.0418 21.5309 15.0068 21.337 14.8388C21.1341 14.6011 21.1204 14.4589 21.1259 14.154C21.1458 13.9685 21.2003 13.8692 21.3282 13.7343C21.5453 13.5613 21.7511 13.5725 22.0165 13.5734Z" fill="#EC9327"/>
<path d="M0.875911 13.5734C0.919651 13.5731 0.963391 13.5729 1.00846 13.5726C1.10077 13.5723 1.19308 13.5724 1.28539 13.5728C1.42624 13.5732 1.56701 13.5718 1.70785 13.5704C1.79772 13.5703 1.8876 13.5703 1.97747 13.5704C2.01938 13.5699 2.06128 13.5694 2.10445 13.5688C2.3636 13.5717 2.51376 13.6076 2.71887 13.7812C2.90901 14.026 2.89577 14.2806 2.85949 14.5781C2.75902 14.7902 2.65016 14.9015 2.43762 14.9999C2.14549 15.075 1.84216 15.0555 1.54269 15.0555C1.43633 15.0556 1.32999 15.0565 1.22363 15.0574C1.15527 15.0575 1.08691 15.0576 1.01855 15.0576C0.956954 15.0578 0.895359 15.058 0.831897 15.0582C0.578456 15.0418 0.390248 15.0068 0.196406 14.8388C-0.00655299 14.6011 -0.0202374 14.4589 -0.0147144 14.154C0.00516467 13.9685 0.0596789 13.8692 0.187617 13.7343C0.404659 13.5613 0.610465 13.5725 0.875911 13.5734Z" fill="#EC9327"/>
<path d="M12.2815 2.29683C12.4964 2.39866 12.6039 2.50464 12.7033 2.7187C12.7243 2.87004 12.7242 3.02002 12.7237 3.17262C12.7239 3.21636 12.7242 3.2601 12.7244 3.30517C12.7247 3.39748 12.7246 3.48979 12.7242 3.5821C12.7238 3.72296 12.7252 3.86372 12.7267 4.00456C12.7268 4.09444 12.7267 4.18431 12.7266 4.27418C12.7274 4.33704 12.7274 4.33704 12.7282 4.40116C12.7253 4.66034 12.6893 4.81037 12.5158 5.01558C12.3378 5.15511 12.178 5.19146 11.9533 5.20308C11.6923 5.15807 11.5621 5.07555 11.3908 4.87495C11.295 4.73119 11.2851 4.70018 11.2835 4.5378C11.2829 4.49836 11.2823 4.45893 11.2817 4.4183C11.2816 4.37582 11.2814 4.33333 11.2813 4.28957C11.281 4.24569 11.2807 4.20182 11.2804 4.15662C11.2799 4.06375 11.2797 3.97087 11.2797 3.878C11.2795 3.73632 11.2778 3.59471 11.276 3.45305C11.2758 3.36275 11.2756 3.27245 11.2755 3.18214C11.2748 3.13995 11.2741 3.09775 11.2734 3.05428C11.2753 2.79394 11.3098 2.64338 11.4846 2.43745C11.7294 2.24731 11.984 2.26055 12.2815 2.29683Z" fill="#EC9327"/>
</g>
<defs>
<clipPath id="clip0_82644_381">
<rect width="24" height="24" fill="white"/>
</clipPath>
</defs>
</svg>
